<?xml version="1.0" encoding="UTF-8" standalone="no"?>
<svg
   xmlns:dc="http://purl.org/dc/elements/1.1/"
   xmlns:cc="http://creativecommons.org/ns#"
   xmlns:rdf="http://www.w3.org/1999/02/22-rdf-syntax-ns#"
   xmlns:svg="http://www.w3.org/2000/svg"
   xmlns="http://www.w3.org/2000/svg"
   xmlns:sodipodi="http://sodipodi.sourceforge.net/DTD/sodipodi-0.dtd"
   xmlns:inkscape="http://www.inkscape.org/namespaces/inkscape"
   width="1000"
   height="1000"
   viewBox="40 100 130 170"
   version="1.1"
   id="svg8"
   inkscape:version="1.0.2 (e86c870879, 2021-01-15, custom)"
   sodipodi:docname="czarne_dol.svg">
  <defs
     id="defs2">
    <inkscape:path-effect
       effect="bspline"
       id="path-effect863"
       is_visible="true"
       lpeversion="1"
       weight="33.333333"
       steps="2"
       helper_size="0"
       apply_no_weight="true"
       apply_with_weight="true"
       only_selected="false" />
    <inkscape:path-effect
       effect="bspline"
       id="path-effect855"
       is_visible="true"
       lpeversion="1"
       weight="33.333333"
       steps="2"
       helper_size="0"
       apply_no_weight="true"
       apply_with_weight="true"
       only_selected="false" />
    <inkscape:path-effect
       effect="bspline"
       id="path-effect897"
       is_visible="true"
       lpeversion="1"
       weight="33.333333"
       steps="2"
       helper_size="0"
       apply_no_weight="true"
       apply_with_weight="true"
       only_selected="false" />
    <inkscape:path-effect
       effect="bspline"
       id="path-effect34"
       is_visible="true"
       lpeversion="1"
       weight="33.333333"
       steps="2"
       helper_size="0"
       apply_no_weight="true"
       apply_with_weight="true"
       only_selected="false" />
  </defs>
  <sodipodi:namedview
     id="base"
     pagecolor="#ffffff"
     bordercolor="#666666"
     borderopacity="1.0"
     inkscape:pageopacity="0.0"
     inkscape:pageshadow="2"
     inkscape:zoom="0.7071068"
     inkscape:cx="306.49872"
     inkscape:cy="1047.3351"
     inkscape:document-units="mm"
     inkscape:current-layer="layer1"
     inkscape:document-rotation="0"
     showgrid="false"
     inkscape:window-width="1920"
     inkscape:window-height="1001"
     inkscape:window-x="-9"
     inkscape:window-y="-9"
     inkscape:window-maximized="1"
     inkscape:snap-object-midpoints="false" />
  <metadata
     id="metadata5">
    <rdf:RDF>
      <cc:Work
         rdf:about="">
        <dc:format>image/svg+xml</dc:format>
        <dc:type
           rdf:resource="http://purl.org/dc/dcmitype/StillImage" />
        <dc:title></dc:title>
      </cc:Work>
    </rdf:RDF>
  </metadata>
  <g
     inkscape:label="Warstwa 1"
     inkscape:groupmode="layer"
     id="layer1">
    <path
       style="fill:#000000;stroke:none;stroke-width:0.334955px;stroke-linecap:butt;stroke-linejoin:miter;stroke-opacity:1"
       d="m 62.934343,126.25296 c 0.455295,-0.63156 1.365932,-1.89475 2.197595,-2.96002 0.831663,-1.06527 1.584301,-1.93255 2.386821,-2.7899 0.80252,-0.85735 1.654839,-1.70469 2.424961,-2.4125 0.770123,-0.70782 1.457969,-1.27604 2.469988,-2.02875 1.012019,-0.7527 2.348115,-1.68983 3.502595,-2.44038 1.15448,-0.75056 2.127242,-1.31447 3.241034,-1.88546 1.113791,-0.57099 2.368501,-1.14901 3.736059,-1.69884 1.367558,-0.54983 2.847843,-1.07145 4.151973,-1.43094 1.30413,-0.3595 2.431964,-0.55687 3.468188,-0.74015 1.036223,-0.18328 1.98078,-0.35245 2.883091,-0.48638 0.902312,-0.13392 1.762277,-0.23261 2.833775,-0.27488 1.071497,-0.0423 2.354421,-0.0282 3.616234,0.0423 1.261813,0.0705 2.502413,0.19738 3.764213,0.34542 1.26181,0.14803 2.54472,0.31721 3.83937,0.57599 1.29465,0.25879 2.60093,0.6071 3.87966,1.02304 1.27872,0.41594 2.5298,0.89943 3.83823,1.48014 1.30843,0.58072 2.67415,1.25859 3.80811,1.86921 1.13397,0.61062 2.03614,1.15392 3.0779,1.84928 1.04176,0.69536 2.22306,1.5427 3.19751,2.31532 0.97446,0.77261 1.74206,1.47043 2.36759,2.07606 0.62554,0.60563 1.10902,1.11902 1.75949,1.82932 0.65048,0.71029 1.46792,1.61745 2.17819,2.48228 0.71028,0.86483 1.31338,1.68724 2.2355,3.18261 0.92211,1.49537 2.16321,3.66355 2.91335,5.05673 0.75014,1.39318 1.00932,2.01124 1.40557,3.10284 0.39625,1.09161 0.92958,2.65671 1.25604,3.72837 0.32646,1.07166 0.44608,1.64983 0.56821,2.19813 0.12212,0.5483 0.24673,1.06668 0.3788,1.78194 0.13207,0.71526 0.27164,1.62742 0.36135,2.31278 0.0897,0.68536 0.12958,1.14391 0.18441,1.87164 0.0548,0.72774 0.12461,1.72463 0.13954,2.65173 0.0149,0.92709 -0.0249,1.78439 -0.0748,2.7813 -0.0499,0.9969 -0.10966,2.13334 -0.26918,3.33956 -0.15952,1.20622 -0.41871,2.48222 -0.57572,3.24733 -0.15701,0.76512 -0.21184,1.01931 -0.3587,1.15624 -0.14686,0.13694 -0.38613,0.15687 -10.58701,0.17932 -10.20088,0.0224 -30.362954,0.0474 -50.525096,0.0723 -0.07227,0.0446 -0.144465,0.0891 -0.132975,0.23143 0.01149,0.14234 0.10665,0.38201 0.404517,0.92656 0.297867,0.54455 0.798338,1.39394 1.182555,1.97019 0.384216,0.57624 0.652083,0.87936 1.14377,1.40099 0.491686,0.52163 1.207151,1.26176 1.959673,1.93846 0.752522,0.67669 1.542002,1.28995 2.338565,1.85916 0.796562,0.5692 1.600143,1.09434 2.280395,1.47848 0.680252,0.38414 1.237121,0.62733 1.778145,0.84937 0.541023,0.22204 1.066168,0.42293 1.862721,0.68197 0.796554,0.25904 1.864469,0.57624 2.720929,0.76477 0.85646,0.18852 1.501422,0.24844 2.121752,0.31012 0.62033,0.0617 1.215977,0.12512 1.85919,0.14095 0.643214,0.0158 1.334002,-0.0159 7.396339,-0.0124 6.06234,0.004 17.49541,0.0423 28.92904,0.0811 -0.69786,1.00449 -1.39577,2.00906 -1.93855,2.7686 -0.54278,0.75954 -0.93047,1.27412 -1.60365,2.05303 -0.67319,0.77891 -1.63184,1.82215 -2.37376,2.59754 -0.74192,0.7754 -1.26705,1.28292 -2.34909,2.15524 -1.08203,0.87232 -2.72092,2.10941 -4.09372,3.07337 -1.3728,0.96396 -2.47947,1.65475 -3.47514,2.20635 -0.99567,0.55159 -1.88031,0.96396 -2.72444,1.33228 -0.84413,0.36832 -1.6477,0.69256 -2.52707,1.02387 -0.87937,0.33131 -1.83451,0.66967 -2.71739,0.93754 -0.88289,0.26787 -1.6935,0.46524 -2.48653,0.64852 -0.79303,0.18328 -1.56842,0.35246 -2.40373,0.49873 -0.83531,0.14628 -1.73053,0.26964 -2.4883,0.34368 -0.75777,0.074 -1.37806,0.0987 -2.42839,0.134 -1.050331,0.0353 -2.530618,0.0811 -3.774771,0.067 -1.244153,-0.0141 -2.252159,-0.0881 -3.115669,-0.1991 -0.86351,-0.111 -1.58249,-0.25902 -2.259212,-0.38944 -0.676722,-0.13041 -1.311132,-0.2432 -1.799268,-0.34363 -0.488137,-0.10043 -0.830026,-0.18854 -1.397491,-0.31896 -0.567464,-0.13042 -1.360469,-0.30312 -2.366732,-0.60268 -1.006262,-0.29957 -2.225735,-0.72603 -3.283106,-1.13486 -1.05737,-0.40883 -1.952589,-0.80005 -2.833736,-1.2177 -0.881147,-0.41765 -1.748164,-0.86173 -2.609927,-1.34987 -0.861763,-0.48813 -1.718218,-1.02033 -2.555313,-1.58953 -0.837096,-0.5692 -1.654769,-1.17541 -2.324442,-1.68823 -0.669673,-0.51281 -1.191303,-0.93223 -1.727044,-1.38513 -0.535741,-0.4529 -1.085554,-0.93928 -1.799298,-1.64418 -0.713744,-0.70491 -1.591341,-1.62832 -2.206389,-2.29798 -0.615048,-0.66966 -0.967494,-1.08555 -1.34464,-1.57193 -0.377146,-0.48638 -0.778939,-1.04324 -1.14373,-1.54374 -0.364792,-0.50049 -0.692566,-0.94457 -0.976304,-1.34989 -0.283739,-0.40532 -0.523409,-0.77188 -0.907594,-1.38867 -0.384186,-0.6168 -0.912857,-1.48382 -1.314677,-2.19049 -0.401819,-0.70667 -0.676731,-1.25297 -0.923462,-1.76932 -0.246732,-0.51635 -0.465251,-1.00273 -0.671454,-1.50322 -0.206203,-0.50049 -0.400051,-1.01507 -0.599181,-1.51556 -0.19913,-0.50049 -0.403546,-0.98686 -0.637953,-1.65477 -0.234406,-0.66791 -0.498741,-1.51731 -0.69612,-2.16231 -0.197379,-0.645 -0.327785,-1.08556 -0.451172,-1.63892 -0.123386,-0.55337 -0.239693,-1.21949 -0.391243,-1.99491 -0.15155,-0.77541 -0.338345,-1.66005 -0.4723,-2.46719 -0.133954,-0.80714 -0.215019,-1.53671 -0.259093,-2.15881 -0.04407,-0.6221 -0.05112,-1.13667 -0.05465,-1.89622 -0.0035,-0.75955 -0.0035,-1.76403 0.02995,-2.72272 0.03347,-0.9587 0.100438,-1.87155 0.160355,-2.67162 0.05992,-0.80007 0.112785,-1.48736 0.202647,-2.12005 0.08986,-0.63269 0.21674,-1.21069 0.334819,-1.80458 0.118078,-0.59389 0.227334,-1.20361 0.303103,-1.58076 0.07577,-0.37715 0.118067,-0.52167 0.181754,-0.5887 0.06369,-0.067 0.148216,-0.0564 10.359012,-0.0459 10.210796,0.0105 30.546682,0.0211 50.883309,0.0316 0.0423,-0.0634 0.0845,-0.12684 0.0987,-0.22889 0.0141,-0.10205 4e-5,-0.24303 -0.0897,-0.41222 -0.0898,-0.16919 -0.2554,-0.36655 -0.481,-0.69961 -0.22561,-0.33306 -0.51109,-0.80181 -0.81771,-1.24768 -0.30661,-0.44587 -0.63439,-0.8688 -0.98861,-1.31819 -0.35422,-0.44939 -0.73486,-0.9252 -1.12607,-1.36402 -0.39121,-0.43883 -0.793,-0.84062 -1.33577,-1.33584 -0.54277,-0.49522 -1.22651,-1.0838 -1.79924,-1.5244 -0.57272,-0.4406 -1.03445,-0.73315 -1.49616,-1.00807 -0.46171,-0.27493 -0.92342,-0.53222 -1.438,-0.80186 -0.51459,-0.26964 -1.08203,-0.5516 -1.74642,-0.84768 -0.66438,-0.29608 -1.42567,-0.60623 -2.02486,-0.81246 -0.59919,-0.20622 -1.03621,-0.30843 -1.52085,-0.40889 -0.48464,-0.10046 -1.01682,-0.19914 -1.4662,-0.27493 -0.44938,-0.0758 -0.81595,-0.12866 -2.1324,-0.1516 -1.316452,-0.0229 -3.582704,-0.0159 -10.001005,-0.0195 -6.418301,-0.004 -16.988201,-0.0176 -22.27183,-0.0278 -5.283628,-0.0102 -5.279777,-0.0178 -5.279737,-0.0636 4e-5,-0.0457 -0.0035,-0.13028 -0.0053,-0.17275 -0.0018,-0.0425 -0.0018,-0.0425 0.4535,-0.67405 z"
       id="path32"
       inkscape:path-effect="#path-effect34"
       inkscape:original-d="m 62.479048,126.88452 c 0.910969,-1.26285 1.821605,-2.52604 2.731906,-3.78956 0.753003,-0.86698 1.505642,-1.73426 2.257959,-2.60189 0.852697,-0.84705 1.705022,-1.69438 2.557028,-2.54208 0.688205,-0.5679 1.376045,-1.13613 2.063569,-1.70469 1.336486,-0.93683 2.672588,-1.87395 4.008381,-2.81145 0.973127,-0.56359 1.945883,-1.12752 2.918322,-1.69178 1.2551,-0.57771 2.509813,-1.15572 3.764215,-1.73409 1.480672,-0.52129 2.960952,-1.04292 4.440927,-1.56488 1.128212,-0.19704 2.256045,-0.39442 3.383565,-0.59213 0.944929,-0.16884 1.889487,-0.33801 2.833727,-0.50753 0.86035,-0.0984 1.72032,-0.19704 2.57997,-0.29606 1.2833,0.0144 2.566224,0.0285 3.848814,0.0423 1.241009,0.12721 2.481609,0.25409 3.721919,0.38063 1.28329,0.16953 2.5662,0.33871 3.84881,0.50754 1.30667,0.34867 2.61295,0.69699 3.91893,1.04497 1.25146,0.48384 2.50254,0.96733 3.7533,1.45048 1.3661,0.67824 2.73182,1.3561 4.09722,2.03365 0.90254,0.54366 1.80471,1.08696 2.70657,1.62994 1.18167,0.84771 2.36297,1.69505 3.54396,2.54206 0.76794,0.69818 1.53555,1.39599 2.30282,2.09348 0.48382,0.51375 0.96731,1.02713 1.45047,1.5402 0.81779,0.90752 1.63523,1.81468 2.45235,2.72151 0.60348,0.8228 1.20657,1.64521 1.80937,2.46731 1.24149,2.16862 2.48258,4.3368 3.72339,6.50471 0.25953,0.61844 0.51871,1.2365 0.77756,1.85422 0.53369,1.56549 1.06702,3.13059 1.60002,4.69537 0.12001,0.57855 0.2396,1.15673 0.35889,1.7346 0.12494,0.51872 0.24954,1.0371 0.37382,1.55515 0.13991,0.91249 0.27946,1.82465 0.41871,2.73646 0.0403,0.45892 0.0801,0.91747 0.11962,1.37571 0.0701,0.99724 0.13991,1.99413 0.20936,2.99067 -0.0395,0.85769 -0.0793,1.71499 -0.11964,2.57198 -0.0595,1.13682 -0.11925,2.27326 -0.17944,3.40939 -0.25884,1.27637 -0.51805,2.55237 -0.77757,3.82806 -0.0545,0.25454 -0.10925,0.50875 -0.16449,0.76261 -0.23892,0.0202 -0.47817,0.0403 -0.71776,0.0598 -20.16221,0.0252 -60.486426,0.0748 -60.486426,0.0748 0,0 -0.144205,0.0895 -0.216813,0.13369 0.09549,0.24002 0.190659,0.47968 0.285489,0.71901 0.500829,0.84978 1.001307,1.69917 1.501455,2.54825 0.268207,0.30345 0.536068,0.60657 0.803596,0.90934 0.715835,0.7405 1.431304,1.48063 2.14645,2.22046 0.789849,0.61362 1.579329,1.22688 2.368495,1.83982 0.803948,0.52549 1.607527,1.05064 2.410788,1.57547 0.557224,0.24353 1.114093,0.48672 1.670635,0.72958 0.525502,0.20124 1.050648,0.40213 1.575476,0.60269 1.068282,0.31756 2.136202,0.63475 3.203812,0.95164 0.64534,0.0603 1.29031,0.12013 1.93497,0.17975 0.59599,0.0638 1.19164,0.12721 1.78695,0.19032 0.691164,-0.0314 1.381954,-0.0631 2.072433,-0.0952 11.43418,0.0391 34.30088,0.11635 34.30088,0.11635 0,0 -1.39538,2.00933 -2.09358,3.01348 -0.38738,0.51494 -0.77508,1.02951 -1.16309,1.54376 -0.95837,1.04362 -1.91703,2.08685 -2.87604,3.12979 -0.52483,0.50789 -1.04997,1.0154 -1.57547,1.5226 -1.63861,1.23748 -3.2775,2.47457 -4.91675,3.71134 -1.10639,0.69117 -2.21306,1.38196 -3.32012,2.07244 -0.88434,0.41272 -1.76899,0.82507 -2.65398,1.23712 -0.80328,0.32461 -1.60685,0.64885 -2.4108,0.97277 -0.95481,0.3387 -1.90996,0.67705 -2.86543,1.01507 -0.81034,0.19772 -1.62096,0.39508 -2.43195,0.59213 -0.77507,0.16952 -1.55046,0.33869 -2.3262,0.50753 -0.89492,0.12369 -1.79014,0.24706 -2.6857,0.37007 -0.62001,0.0251 -1.24031,0.0497 -1.86096,0.0741 -1.480009,0.0462 -2.960293,0.0921 -4.440933,0.13746 -1.00771,-0.0736 -2.01571,-0.1477 -3.02406,-0.22205 -0.7187,-0.1477 -1.43768,-0.29572 -2.157024,-0.44409 -0.6341,-0.11242 -1.268504,-0.22524 -1.903255,-0.33836 -0.341554,-0.0877 -0.683427,-0.17588 -1.025645,-0.26434 -0.792703,-0.17237 -1.58571,-0.34506 -2.379065,-0.51811 -1.219182,-0.42614 -2.438652,-0.85261 -3.658481,-1.27941 -0.894918,-0.39089 -1.790135,-0.78211 -2.685702,-1.17367 -0.866722,-0.44377 -1.733741,-0.88785 -2.601115,-1.33228 -0.856148,-0.53187 -1.712596,-1.06408 -2.569395,-1.59662 -0.817376,-0.6059 -1.635053,-1.2121 -2.453082,-1.81866 -0.521309,-0.41909 -1.042931,-0.83852 -1.564899,-1.25827 -0.549506,-0.48606 -1.099322,-0.97243 -1.649486,-1.45916 -0.877297,-0.92311 -1.754891,-1.84653 -2.632835,-2.7703 -0.352127,-0.41557 -0.704576,-0.83145 -1.057366,-1.24768 -0.401471,-0.55655 -0.803261,-1.11342 -1.205395,-1.67063 -0.327453,-0.44377 -0.65523,-0.88785 -0.983347,-1.33228 -0.239338,-0.36622 -0.479002,-0.73278 -0.719009,-1.09967 -0.528355,-0.86671 -1.057026,-1.73373 -1.586045,-2.60111 -0.274583,-0.54597 -0.549491,-1.09227 -0.824742,-1.63891 -0.218193,-0.48606 -0.436708,-0.97244 -0.655565,-1.45915 -0.19352,-0.51427 -0.387366,-1.02885 -0.58155,-1.54375 -0.204095,-0.48608 -0.408512,-0.97245 -0.613269,-1.45916 -0.264013,-0.84911 -0.528349,-1.69851 -0.793026,-2.54827 -0.130076,-0.44023 -0.260482,-0.88079 -0.391224,-1.32169 -0.115976,-0.66582 -0.232286,-1.33194 -0.34893,-1.99842 -0.18647,-0.88435 -0.373267,-1.76899 -0.560401,-2.65399 -0.08073,-0.72926 -0.161794,-1.45883 -0.243196,-2.18873 -0.0067,-0.51427 -0.01376,-1.02884 -0.02114,-1.54375 3.35e-4,-1.00419 3.35e-4,-2.00867 0,-3.01349 0.0673,-0.91254 0.13427,-1.82539 0.2009,-2.73858 0.0532,-0.68695 0.106072,-1.37424 0.158605,-2.06186 0.127223,-0.5777 0.254104,-1.1557 0.380651,-1.73407 0.109595,-0.60943 0.218856,-1.21915 0.327783,-1.82925 0.04262,-0.14416 0.08492,-0.28867 0.126885,-0.43351 0.08492,0.0114 0.169511,0.0215 0.253766,0.0318 20.337369,0.0114 61.009882,0.0316 61.009882,0.0316 0,0 0.0849,-0.12661 0.12688,-0.19034 -0.0138,-0.14063 -0.0279,-0.28161 -0.0423,-0.42293 -0.16532,-0.19706 -0.33097,-0.39442 -0.49696,-0.59212 -0.28517,-0.46844 -0.57064,-0.9372 -0.85647,-1.4063 -0.32745,-0.42262 -0.65523,-0.84555 -0.98335,-1.26883 -0.38032,-0.4755 -0.76097,-0.9513 -1.14195,-1.42744 -0.40148,-0.40148 -0.80326,-0.80328 -1.20539,-1.2054 -0.68344,-0.58828 -1.36719,-1.17686 -2.05129,-1.76581 -0.46138,-0.29219 -0.9231,-0.58474 -1.38514,-0.8776 -0.46139,-0.25696 -0.92311,-0.51424 -1.38515,-0.77188 -0.56713,-0.28163 -1.13457,-0.56359 -1.70235,-0.84589 -0.76099,-0.30983 -1.52228,-0.61999 -2.28391,-0.93047 -0.43672,-0.10195 -0.87375,-0.2041 -1.31113,-0.30664 -0.53189,-0.0984 -1.06408,-0.19705 -1.59662,-0.29606 -0.36622,-0.0525 -0.73277,-0.1055 -1.09965,-0.15861 -2.265989,0.008 -4.532243,0.0144 -6.798853,0.0211 -10.569993,-0.0138 -21.139893,-0.0279 -31.710338,-0.0423 0.0038,-0.006 0.0073,-0.0138 0.01066,-0.0211 -0.0033,-0.0843 -0.0067,-0.16886 -0.01066,-0.25377 z" />
    <text
       xml:space="preserve"
       id="text907"
       style="fill:black;fill-opacity:1;line-height:1.25;stroke:none;font-family:sans-serif;font-style:normal;font-weight:normal;font-size:10.58333333px;white-space:pre;shape-inside:url(#rect909);" />
    <text
       xml:space="preserve"
       style="font-style:normal;font-weight:normal;font-size:10.5833px;line-height:1.25;font-family:sans-serif;fill:#000000;fill-opacity:1;stroke:none;stroke-width:0.264583"
       x="102.26146"
       y="157.82396"
       id="text915"><tspan
         sodipodi:role="line"
         id="tspan913"
         x="102.26146"
         y="157.82396"
         style="stroke-width:0.264583" /></text>
    <text
       xml:space="preserve"
       style="font-style:normal;font-variant:normal;font-weight:normal;font-stretch:normal;font-size:20.1855px;line-height:1.25;font-family:'Freeroad Light';-inkscape-font-specification:'Freeroad Light, ';fill:#000000;stroke-width:0.504634"
       x="23.427216"
       y="105.10818"
       id="text841"><tspan
         sodipodi:role="line"
         id="tspan839"
         x="23.427216"
         y="105.10818"
         style="font-style:normal;font-variant:normal;font-weight:normal;font-stretch:normal;font-family:'Freeroad Black';-inkscape-font-specification:'Freeroad Black, ';fill:#000000;stroke-width:0.504634" /></text>
    <path
       style="opacity:0;fill:#000000;stroke-width:0.236849"
       d="m 92.312017,191.35228 c -3.554297,-0.65971 -6.171195,-1.33006 -8.385959,-2.14819 -8.482995,-3.13358 -15.378354,-8.58172 -20.476363,-16.17872 -3.728649,-5.55639 -6.008023,-11.61292 -6.973486,-18.52927 -0.43019,-3.08179 -0.04391,-10.6372 0.687189,-13.4412 l 0.231581,-0.88819 30.248387,-0.003 c 16.636614,-0.002 30.488204,-0.0675 30.781314,-0.14606 0.2931,-0.0786 0.5329,-0.26757 0.5329,-0.42007 0,-0.66244 -2.65189,-4.22452 -4.61387,-6.19745 -2.29547,-2.30828 -4.2628,-3.62057 -7.43089,-4.9567 -3.64573,-1.53757 -3.68584,-1.54006 -24.819828,-1.54006 H 63.044439 l 0.277223,-0.51799 c 0.152472,-0.2849 0.369024,-0.63129 0.481224,-0.76976 0.112204,-0.13848 0.710633,-0.94456 1.329849,-1.7913 1.137093,-1.55491 5.981253,-6.62827 5.981253,-6.26425 0,0.10819 0.133229,0.0377 0.296064,-0.15674 1.25383,-1.49686 6.918725,-5.04316 10.362163,-6.48685 0.846735,-0.355 1.752686,-0.73703 2.013218,-0.84896 1.658584,-0.71254 5.022004,-1.55794 9.251394,-2.32536 3.419,-0.62038 10.963513,-0.16371 15.499383,0.93817 1.90422,0.46259 2.46109,0.63448 4.93905,1.52457 2.80491,1.00753 8.59232,4.26056 10.80848,6.0753 4.4609,3.65289 7.22803,6.73465 9.64496,10.74159 4.07373,6.75375 5.67982,11.23529 6.49344,18.11898 0.34294,2.9014 0.33367,7.2656 -0.0201,9.49962 -0.3995,2.52227 -0.70119,4.01552 -0.86477,4.28024 -0.15783,0.2554 -5.78892,0.33438 -30.73578,0.43112 -16.798413,0.0651 -30.60537,0.18125 -30.682136,0.25804 -0.16445,0.16451 0.772335,1.98031 1.768975,3.42887 0.896154,1.30252 3.168534,3.65541 3.530327,3.65541 0.152009,0 0.225542,0.0823 0.163407,0.1828 -0.119686,0.19366 2.311389,1.94885 2.699318,1.94885 0.125341,0 0.227897,0.0801 0.227897,0.17804 0,0.32529 2.812174,1.64953 5.092265,2.39792 3.077784,1.0102 5.572564,1.22588 14.037337,1.21349 4.39431,-0.006 12.54879,-0.009 18.12107,-0.005 l 10.13139,0.006 -1.4281,1.94565 c -5.15567,7.02412 -12.61441,12.46243 -20.84791,15.20062 -4.40385,1.46457 -6.66015,1.82579 -12.079329,1.93379 -4.019584,0.0801 -5.263144,0.0211 -7.223914,-0.34287 z m 17.763713,-34.36926 c 0.0805,-0.13027 0.4529,-0.23685 0.82754,-0.23685 0.96862,0 1.71695,-0.33076 2.69889,-1.19292 0.53564,-0.47029 0.85528,-0.96307 0.85528,-1.31854 0,-0.31217 0.10658,-0.56758 0.23685,-0.56758 0.13159,0 0.23685,-0.6316 0.23685,-1.4211 0,-0.7816 -0.0951,-1.4211 -0.21117,-1.4211 -0.11614,0 -0.27685,-0.26166 -0.35712,-0.58148 -0.17473,-0.69622 -1.4062,-1.68438 -2.39232,-1.91966 -0.39081,-0.0932 -0.81714,-0.25119 -0.9474,-0.35102 -0.13027,-0.0998 -0.50331,-0.23048 -0.82898,-0.29036 -0.32567,-0.0599 0.5152,-0.12338 1.86857,-0.14111 l 2.46071,-0.0323 -0.1422,-1.20057 c -0.1726,-1.45742 -0.81078,-2.54804 -1.86143,-3.18114 -0.66493,-0.40067 -1.20607,-0.4737 -3.5099,-0.4737 -2.36133,0 -2.85473,0.0701 -3.70798,0.5263 -1.29549,0.69275 -1.91707,1.52169 -2.11105,2.81531 -0.22292,1.48646 0.25914,3.02402 1.20977,3.85868 0.4303,0.37781 1.64034,0.96858 2.72122,1.32853 1.923,0.64042 2.98583,1.33918 2.71168,1.78276 -0.3665,0.59302 -2.00788,-0.21814 -2.00788,-0.99227 0,-0.11033 -0.91356,-0.2006 -2.03014,-0.2006 -2.16113,0 -2.70685,0.23436 -2.70685,1.16252 0,0.90483 0.76082,2.39375 1.48761,2.91127 1.35066,0.96176 5.1254,1.7421 5.49945,1.1369 z m 13.02672,-0.15581 c 2.03962,-0.48458 2.88509,-1.04901 3.45672,-2.30768 0.45589,-1.00385 0.63077,-3.6946 0.24013,-3.6946 -0.11615,0 -0.27685,-0.26166 -0.35712,-0.58148 -0.17474,-0.69622 -1.40621,-1.68438 -2.39234,-1.91966 -0.39079,-0.0932 -0.81712,-0.24751 -0.94739,-0.34283 -0.13027,-0.0953 -0.64966,-0.24779 -1.1542,-0.33881 -1.67448,-0.30213 -2.38951,-1.11966 -1.23311,-1.4099 0.79595,-0.19977 1.30042,0.0446 1.46763,0.71079 0.13651,0.54387 0.22471,0.566 2.25546,0.566 2.43312,0 2.56467,-0.1115 2.09806,-1.77805 -0.38124,-1.36165 -1.6185,-2.62947 -2.90436,-2.97611 -0.55537,-0.14972 -1.95865,-0.22877 -3.14363,-0.1771 -2.34805,0.10238 -3.72226,0.67637 -4.03733,1.68634 -0.0895,0.28663 -0.27047,0.59041 -0.40233,0.67507 -0.30656,0.19683 -0.31549,3.51393 -0.01,3.71859 0.12635,0.0846 0.29681,0.33589 0.37878,0.55831 0.22393,0.60749 1.74654,1.47339 3.60599,2.05069 0.91188,0.2831 1.80671,0.60849 1.98853,0.72309 0.47245,0.29776 0.1516,0.92584 -0.56481,1.10564 -0.46072,0.11563 -0.72374,0.0216 -1.07596,-0.38446 -0.25639,-0.29563 -0.46617,-0.62778 -0.46617,-0.73811 0,-0.11034 -0.9728,-0.20061 -2.16178,-0.20061 h -2.16178 l 0.11622,1.20949 c 0.0639,0.66522 0.21288,1.27807 0.33101,1.36189 0.11814,0.0837 0.33176,0.41955 0.47471,0.74609 0.29605,0.67627 2.07893,1.65637 3.01307,1.65637 0.34397,0 0.62539,0.10657 0.62539,0.23685 0,0.34762 1.08116,0.29071 2.96063,-0.15581 z m -43.971434,-1.20607 c 0.132133,-0.61877 0.365071,-1.84447 0.517637,-2.72378 0.152566,-0.87931 0.347018,-1.59873 0.43211,-1.59873 0.206835,0 0.673575,1.13093 0.830871,2.01321 0.06967,0.39081 0.246826,1.32704 0.393673,2.08053 l 0.266997,1.36995 2.399033,-0.0673 2.399033,-0.0673 0.308585,-1.52699 c 0.169725,-0.83984 0.404341,-1.58615 0.521379,-1.65848 0.117033,-0.0723 0.289759,-0.5576 0.383835,-1.07837 0.09408,-0.52077 0.249773,-1.05344 0.345996,-1.1837 0.09622,-0.13028 0.309449,-0.82305 0.473835,-1.53953 0.164383,-0.71646 0.377609,-1.40925 0.473832,-1.53952 0.09622,-0.13026 0.249427,-0.64965 0.340459,-1.15418 0.09103,-0.50455 0.263078,-1.09076 0.382332,-1.30269 0.119251,-0.21193 0.315512,-0.75836 0.436132,-1.21429 0.150402,-0.56849 0.226028,1.23635 0.240679,5.7436 l 0.02137,6.57257 h 2.605333 2.60536 l 0.0119,-2.07243 0.0119,-2.07244 1.05639,2.07244 1.05639,2.07243 h 2.721223 c 3.1708,0 3.16445,0.006 1.91827,-2.11928 -0.44163,-0.75352 -0.87513,-1.59746 -0.96337,-1.87544 -0.0882,-0.27798 -0.2598,-0.50542 -0.38129,-0.50542 -0.43915,0 -0.20534,-0.58562 0.54144,-1.35609 0.68199,-0.70364 0.77216,-0.96053 0.85561,-2.43748 0.0513,-0.90803 0.0227,-2.02694 -0.0635,-2.48649 -0.16687,-0.88947 -1.39568,-2.48337 -1.91455,-2.48337 -0.17105,0 -0.35532,-0.13323 -0.409489,-0.29606 -0.0752,-0.22613 -1.811024,-0.31306 -7.348964,-0.36801 l -7.250457,-0.0719 -0.155047,0.90092 c -0.328532,1.90891 -1.108292,5.64254 -1.198074,5.73659 -0.245401,0.25705 -0.431292,-0.4366 -0.897001,-3.34713 l -0.503469,-3.1465 h -2.352296 -2.352297 l -0.40414,2.48693 c -0.42157,2.59417 -0.774442,3.78959 -1.118632,3.78959 -0.111658,0 -0.386817,-1.25234 -0.611469,-2.78298 -0.224651,-1.53065 -0.462862,-2.9695 -0.52936,-3.19747 -0.106105,-0.36375 -0.454703,-0.41449 -2.847529,-0.41449 h -2.72663 l 0.167002,0.76976 c 0.09185,0.42338 0.244816,0.82306 0.33993,0.88819 0.09511,0.0651 0.251129,0.54476 0.346712,1.06582 0.09558,0.52107 0.256868,1.05399 0.35842,1.18425 0.101551,0.13026 0.319135,0.82305 0.483522,1.53952 0.164386,0.71647 0.379457,1.40925 0.477935,1.53953 0.09848,0.13026 0.253766,0.68982 0.345078,1.24345 0.09131,0.55363 0.251133,1.00662 0.35516,1.00662 0.104028,0 0.261061,0.47961 0.348967,1.06582 0.0879,0.5862 0.248021,1.06581 0.35581,1.06581 0.107786,0 0.266812,0.39969 0.353388,0.88819 0.322532,1.81986 0.151954,1.71716 2.852259,1.71716 h 2.451333 z m 106.924234,4.0205 c 0,0 -32.47798,-0.0592 -32.47798,-0.0592 0,0 0.0296,-52.49176 0.0296,-52.49176 0,0 1.47571,-0.01 2.21306,-0.0148 0.5308,0.10889 1.06122,0.21744 1.59134,0.32567 0.47157,0.12369 0.94279,0.24704 1.41369,0.37007 0.49784,0.15456 0.99532,0.30879 1.49247,0.46267 0.92149,0.433 1.8426,0.86565 2.7634,1.29796 0.82377,0.53069 1.6472,1.06103 2.47029,1.59103 0.64234,0.52373 1.28433,1.04708 1.92599,1.57011 0.41905,0.46091 0.83773,0.92147 1.25609,1.38169 0.41206,0.56559 0.82377,1.13081 1.23515,1.69571 0.37018,0.57257 0.74003,1.14478 1.10954,1.71665 0.24458,0.48185 0.48882,0.96333 0.73271,1.4445 0.14689,0.34228 0.29343,0.6842 0.43963,1.0258 0.36322,1.1448 0.72607,2.28921 1.08861,3.4333 0.0771,0.56559 0.15385,1.13081 0.23028,1.69571 0.0282,0.86566 0.0838,2.59591 0.0838,2.59591 0,0 0,11.82812 0,11.82812 0,0 12.33056,0.10464 12.33056,0.10464 0,0 0.0718,20.02619 0.0718,20.02619 z"
       id="path843" />
    <path
       style="fill:#000000;stroke:#000000;stroke-width:0.334955px;stroke-linecap:butt;stroke-linejoin:miter;stroke-opacity:1"
       d="m 153.57727,159.58243 c 0,0 15.34435,0.0676 15.34435,0.0676 0,0 17.13363,-0.009 17.13363,-0.009 0,0 -0.0718,-20.02619 -0.0718,-20.02619 0,0 -12.33057,-0.10475 -12.33057,-0.10475 0,0 -0.0836,-14.42402 -0.0836,-14.42402 -0.16748,-0.87228 -0.33489,-1.74418 -0.55468,-2.59902 -0.21979,-0.85483 -0.49194,-1.6922 -0.82338,-2.52262 -0.33143,-0.83041 -0.72221,-1.65383 -1.30836,-2.6343 -0.58614,-0.98047 -1.36768,-2.11789 -2.28878,-3.17862 -0.92109,-1.06074 -1.98177,-2.04466 -2.92382,-2.80184 -0.94205,-0.75718 -1.76547,-1.28751 -2.63775,-1.76905 -0.87228,-0.48153 -1.79339,-0.91417 -3.00356,-1.32361 -1.21017,-0.40945 -2.70931,-0.79558 -3.82777,-0.98623 -1.11846,-0.19064 -1.85647,-0.18567 -2.59416,-0.1807 0,0 -0.0296,52.49175 -0.0296,52.49175 0,0 -1.5e-4,6e-4 -1.5e-4,6e-4 z"
       id="path853"
       inkscape:path-effect="#path-effect855"
       inkscape:original-d="m 153.57727,159.58243 c 0,0 15.34435,0.0676 15.34435,0.0676 0,0 17.13363,-0.009 17.13363,-0.009 0,0 -0.0718,-20.02619 -0.0718,-20.02619 0,0 -12.33057,-0.10475 -12.33057,-0.10475 0,0 -0.0836,-14.42402 -0.0836,-14.42402 0,0 -0.33463,-1.74423 -0.50244,-2.61684 -0.27182,-0.83708 -0.54397,-1.67445 -0.81646,-2.51217 -0.39045,-0.82311 -0.78123,-1.64653 -1.17234,-2.4703 -0.78125,-1.13715 -1.56279,-2.27457 -2.3447,-3.41237 -1.06036,-0.98361 -2.12104,-1.96753 -3.18208,-2.9518 -0.82311,-0.53001 -1.64652,-1.06035 -2.4703,-1.59104 -0.9208,-0.43231 -1.84191,-0.86495 -2.76338,-1.29794 -1.49886,-0.38582 -2.998,-0.77194 -4.4975,-1.15843 -0.73736,0.005 -2.21306,0.0149 -2.21306,0.0149 0,0 -0.0296,52.49175 -0.0296,52.49175 z" />
    <path
       style="fill:#000000;stroke:none;stroke-width:0.334955px;stroke-linecap:butt;stroke-linejoin:miter;stroke-opacity:1"
       d="m 185.98864,172.06143 c 0,0 0.0222,20.11 0.0222,20.11 0,0 -14.45144,-0.0308 -14.45144,-0.0308 -0.82343,-0.13259 -1.6465,-0.26511 -2.43502,-0.45001 -0.78853,-0.18489 -1.54217,-0.42214 -2.42144,-0.76754 -0.87927,-0.3454 -1.88412,-0.79898 -2.75991,-1.28393 -0.87579,-0.48496 -1.62245,-1.00134 -2.36565,-1.57702 -0.74319,-0.57569 -1.48288,-1.2107 -2.11444,-1.83175 -0.63156,-0.62104 -1.15492,-1.22814 -1.68878,-1.93293 -0.53386,-0.7048 -1.07816,-1.50729 -1.56318,-2.32025 -0.48502,-0.81296 -0.91068,-1.63637 -1.24568,-2.41097 -0.33499,-0.77459 -0.57922,-1.50032 -0.77115,-2.20164 -0.19193,-0.70133 -0.3315,-1.37822 -0.43271,-2.07257 -0.10121,-0.69435 -0.16401,-1.40613 -0.18845,-1.94347 -0.0245,-0.53733 -0.0105,-0.90052 0.004,-1.26339 0,0 32.41218,-0.0238 32.41218,-0.0238 0,0 -3e-5,7e-5 -3e-5,7e-5 z M 43.355093,107.06194 c 0,0 0,20.0136 0,20.0136 0,0 -20.139213,0 -20.139213,0 0,0 0,-20.09733 0,-20.09733 0,0 20.139213,0.0836 20.139213,0.0836 0,0 0,1.3e-4 0,1.3e-4 z m -19.941404,32.55113 c 0,0 19.939763,0.0148 19.939763,0.0148 0,0 -0.04441,52.38813 -0.04441,52.38813 0,0 -2.649753,-0.0148 -2.649753,-0.0148 -0.606927,-0.0888 -1.213477,-0.17758 -1.975834,-0.36998 -0.762356,-0.19241 -1.680127,-0.48847 -2.691682,-0.90539 -1.011554,-0.41693 -2.116832,-0.95477 -3.032177,-1.48271 -0.915344,-0.52795 -1.640682,-1.04605 -2.432675,-1.7171 -0.791992,-0.67105 -1.650548,-1.49507 -2.380884,-2.3635 -0.730336,-0.86843 -1.332313,-1.78126 -1.902274,-2.81995 -0.569961,-1.03869 -1.107797,-2.20318 -1.554383,-3.28629 -0.446586,-1.0831 -0.801849,-2.08474 -1.006677,-2.82739 -0.204828,-0.74265 -0.259146,-1.22657 -0.313424,-1.71014 0,0 0.04441,-34.90568 0.04441,-34.90568 z"
       id="path861"
       inkscape:path-effect="#path-effect863"
       inkscape:original-d="m 185.98864,172.06143 c 0,0 0.0222,20.11 0.0222,20.11 0,0 -14.45144,-0.0308 -14.45144,-0.0308 0,0 -1.64654,-0.26484 -2.47029,-0.39776 -0.75333,-0.23692 -1.50697,-0.47418 -2.26096,-0.71178 -1.00455,-0.45326 -2.0094,-0.90684 -3.0146,-1.36076 -0.74636,-0.51606 -1.49302,-1.03244 -2.24002,-1.54917 -0.73937,-0.63469 -1.47905,-1.26971 -2.21909,-1.90507 -0.52303,-0.60678 -1.04638,-1.21388 -1.57009,-1.82131 -0.54399,-0.80217 -1.08827,-1.60467 -1.63291,-2.4075 -0.42535,-0.82311 -0.85101,-1.64652 -1.27703,-2.4703 -0.2439,-0.72541 -0.48815,-1.45113 -0.73271,-2.17722 -0.13924,-0.67655 -0.2788,-1.35344 -0.41869,-2.03065 -0.0625,-0.71146 -0.12533,-1.42324 -0.18842,-2.13535 0.0143,-0.36253 0.0419,-1.0886 0.0419,-1.0886 0,0 32.41218,-0.0238 32.41218,-0.0238 z M 43.355093,107.06194 c 0,0 0,20.0136 0,20.0136 0,0 -20.139213,0 -20.139213,0 0,0 0,-20.09733 0,-20.09733 0,0 20.139213,0.0836 20.139213,0.0836 z m -19.941404,32.55113 c 0,0 19.939763,0.0148 19.939763,0.0148 0,0 -0.04441,52.38813 -0.04441,52.38813 0,0 -2.649753,-0.0148 -2.649753,-0.0148 0,0 -1.213518,-0.1773 -1.820781,-0.26645 -0.917474,-0.29574 -1.835247,-0.59179 -2.753373,-0.88819 -1.104985,-0.53752 -2.210261,-1.07536 -3.315894,-1.61354 -0.725031,-0.51779 -1.450367,-1.03589 -2.176053,-1.55432 -0.858261,-0.82373 -1.716824,-1.64774 -2.575738,-2.47212 -0.601669,-0.91254 -1.203651,-1.82537 -1.805977,-2.73857 -0.537521,-1.1642 -1.075357,-2.32869 -1.613537,-3.49353 -0.354947,-1.00137 -0.710214,-2.00301 -1.065823,-3.00502 -0.05395,-0.48325 -0.162834,-1.45071 -0.162834,-1.45071 0,0 0.04441,-34.90568 0.04441,-34.90568 z" />
    <text
       xml:space="preserve"
       style="font-style:normal;font-weight:normal;font-size:8.46667px;line-height:1.25;font-family:sans-serif;fill:#000000;fill-opacity:1;stroke:none;stroke-width:0.264583"
       x="104.37584"
       y="209.8976"
       id="text852"><tspan
         sodipodi:role="line"
         x="104.37584"
         y="209.8976"
         style="font-weight:bold;font-size:12.7px;text-align:center;text-anchor:middle;stroke-width:0.264583"
         id="tspan854">Wydziałowa Rada</tspan><tspan
         sodipodi:role="line"
         x="104.37584"
         y="225.7726"
         style="font-weight:bold;font-size:12.7px;text-align:center;text-anchor:middle;stroke-width:0.264583"
         id="tspan848">Samorządu Studentów</tspan></text>
  </g>
</svg>
